<svg width="509" height="509" viewBox="0 0 509 509" fill="none" xmlns="http://www.w3.org/2000/svg">
<g filter="url(#filter0_d)">
<path d="M4 200.393H504V301.607H4V200.393Z" fill="#272727"/>
<path d="M204 501V1.00005H304V501H204Z" fill="#272727"/>
<path fill-rule="evenodd" clip-rule="evenodd" d="M11.3529 251.015L4 251L4.01008 245.939L11.363 245.954L11.3529 251.015ZM40.7646 251.075L26.0588 251.045L26.0689 245.984L40.7747 246.014L40.7646 251.075ZM70.1763 251.135L55.4705 251.105L55.4806 246.044L70.1864 246.074L70.1763 251.135ZM99.588 251.195L84.8822 251.165L84.8923 246.104L99.5981 246.134L99.588 251.195ZM129 251.255L114.294 251.225L114.304 246.164L129.01 246.194L129 251.255ZM158.411 251.315L143.706 251.285L143.716 246.224L158.422 246.254L158.411 251.315ZM187.823 251.375L173.117 251.345L173.127 246.284L187.833 246.314L187.823 251.375ZM217.235 251.435L202.529 251.405L202.539 246.344L217.245 246.374L217.235 251.435ZM246.647 251.495L231.941 251.465L231.951 246.404L246.657 246.434L246.647 251.495ZM276.058 251.555L261.352 251.525L261.363 246.464L276.068 246.494L276.058 251.555ZM305.47 251.615L290.764 251.585L290.774 246.524L305.48 246.554L305.47 251.615ZM334.882 251.675L320.176 251.645L320.186 246.585L334.892 246.615L334.882 251.675ZM364.293 251.735L349.587 251.705L349.598 246.645L364.303 246.675L364.293 251.735ZM393.705 251.795L378.999 251.765L379.009 246.705L393.715 246.735L393.705 251.795ZM423.117 251.855L408.411 251.825L408.421 246.765L423.127 246.795L423.117 251.855ZM452.528 251.915L437.823 251.885L437.833 246.825L452.538 246.855L452.528 251.915ZM481.94 251.975L467.234 251.945L467.244 246.885L481.95 246.915L481.94 251.975ZM503.999 252.02L496.646 252.005L496.656 246.945L504.009 246.96L503.999 252.02Z" fill="#272727"/>
<path fill-rule="evenodd" clip-rule="evenodd" d="M254.006 308.728L254 301.607L259 301.603L259.006 308.724L254.006 308.728ZM254.029 337.213L254.018 322.971L259.018 322.966L259.029 337.209L254.029 337.213ZM254.053 365.697L254.041 351.455L259.041 351.451L259.053 365.693L254.053 365.697ZM254.076 394.182L254.064 379.94L259.064 379.935L259.076 394.178L254.076 394.182ZM254.099 422.666L254.088 408.424L259.088 408.42L259.099 422.662L254.099 422.666ZM254.123 451.151L254.111 436.909L259.111 436.904L259.123 451.147L254.123 451.151ZM254.146 479.635L254.134 465.393L259.134 465.389L259.146 479.631L254.146 479.635ZM254.163 500.999L254.158 493.878L259.158 493.873L259.163 500.994L254.163 500.999Z" fill="#272727"/>
<path fill-rule="evenodd" clip-rule="evenodd" d="M254.006 8.12117L254 1.00005L259 0.99585L259.006 8.11697L254.006 8.12117ZM254.029 36.6056L254.018 22.3634L259.018 22.3592L259.029 36.6014L254.029 36.6056ZM254.053 65.0901L254.041 50.8479L259.041 50.8437L259.053 65.0859L254.053 65.0901ZM254.076 93.5746L254.064 79.3324L259.064 79.3282L259.076 93.5704L254.076 93.5746ZM254.099 122.059L254.088 107.817L259.088 107.813L259.099 122.055L254.099 122.059ZM254.123 150.544L254.111 136.301L259.111 136.297L259.123 150.539L254.123 150.544ZM254.146 179.028L254.134 164.786L259.134 164.782L259.146 179.024L254.146 179.028ZM254.163 200.391L254.158 193.27L259.158 193.266L259.163 200.387L254.163 200.391Z" fill="#272727"/>
</g>
<line x1="4" y1="248.5" x2="504" y2="248.5" stroke="#E9E9E9" stroke-width="5" stroke-dasharray="20 20"/>
<line x1="256.5" y1="1" x2="256.5" y2="197" stroke="#E9E9E9" stroke-width="5" stroke-dasharray="20 20"/>
<line x1="256.5" y1="305" x2="256.5" y2="501" stroke="#E9E9E9" stroke-width="5" stroke-dasharray="20 20"/>
<line x1="254" y1="302.5" x2="305" y2="302.5" stroke="#E9E9E9" stroke-width="5"/>
<line x1="203.957" y1="197" x2="259.047" y2="197" stroke="#E9E9E9" stroke-width="5"/>
<defs>
<filter id="filter0_d" x="0" y="0.99585" width="508.009" height="508.004" filterUnits="userSpaceOnUse" color-interpolation-filters="sRGB">
<feFlood flood-opacity="0" result="BackgroundImageFix"/>
<feColorMatrix in="SourceAlpha" type="matrix" values="0 0 0 0 0 0 0 0 0 0 0 0 0 0 0 0 0 0 127 0"/>
<feOffset dy="4"/>
<feGaussianBlur stdDeviation="2"/>
<feColorMatrix type="matrix" values="0 0 0 0 0 0 0 0 0 0 0 0 0 0 0 0 0 0 0.25 0"/>
<feBlend mode="normal" in2="BackgroundImageFix" result="effect1_dropShadow"/>
<feBlend mode="normal" in="SourceGraphic" in2="effect1_dropShadow" result="shape"/>
</filter>
</defs>
</svg>
