<svg width="509" height="509" viewBox="0 0 509 509" fill="none" xmlns="http://www.w3.org/2000/svg">
<g clip-path="url(#clip0)">
<g filter="url(#filter0_d)">
<path d="M9 199.397H509V300.611H9V199.397Z" fill="#272727"/>
<path d="M359 504.004V4.00415H459V504.004H359Z" fill="#272727"/>
<path d="M372.5 144C356.706 184.39 342.395 196.172 311 205.5H372.5V144Z" fill="#272727"/>
<path d="M311 290C351.39 305.794 363.172 320.105 372.5 351.5V290H311Z" fill="#272727"/>
</g>
<path d="M-146 255H354" stroke="#E9E9E9" stroke-width="5" stroke-dasharray="20 20"/>
<path d="M249 252V302" stroke="#E9E9E9" stroke-width="5"/>
<rect x="254" y="205" width="86" height="15" fill="#F7EAEA"/>
<rect x="254" y="230" width="86" height="15" fill="#F7EAEA"/>
<rect x="254" y="252" width="86" height="15" fill="#F7EAEA"/>
<rect x="254" y="277" width="86" height="15" fill="#F7EAEA"/>
<rect x="308.828" y="143.554" width="26.4814" height="26.4814" transform="rotate(-45 308.828 143.554)" fill="#F5F875"/>
<rect x="308.828" y="143.554" width="26.4814" height="26.4814" transform="rotate(-45 308.828 143.554)" stroke="white" stroke-width="4"/>
<rect x="308.828" y="143.554" width="26.4814" height="26.4814" transform="rotate(-45 308.828 143.554)" stroke="url(#paint0_linear)" stroke-width="4"/>
<line x1="326.495" y1="121.997" x2="326.436" y2="86.9972" stroke="#D3D0D0" stroke-width="4"/>
<line x1="261" y1="339.5" x2="296" y2="339.5" stroke="#D3D0D0" stroke-width="4"/>
<path d="M294.944 328.22L294.5 328.66V329.286V347.714V348.34L294.944 348.78L307.341 361.065L307.779 361.5H308.396H326.604H327.221L327.659 361.065L340.056 348.78L340.5 348.34V347.714V329.286V328.66L340.056 328.22L327.659 315.935L327.221 315.5H326.604H308.396H307.779L307.341 315.935L294.944 328.22Z" fill="#FA3E3E" stroke="white" stroke-width="3"/>
<path d="M292.648 327.645L292.5 327.792V328V349V349.208L292.648 349.355L306.774 363.355L306.92 363.5H307.126H327.874H328.08L328.226 363.355L342.352 349.355L342.5 349.208V349V328V327.792L342.352 327.645L328.226 313.645L328.08 313.5H327.874H307.126H306.92L306.774 313.645L292.648 327.645Z" stroke="black"/>
<path d="M316.437 325.088C316.76 323.962 317.157 323.142 317.626 322.627C318.1 322.117 318.683 321.861 319.376 321.861C320.16 321.861 320.807 322.174 321.317 322.798C321.832 323.427 322.09 324.243 322.09 325.245C322.09 325.929 321.958 326.537 321.693 327.07C321.429 327.608 321.064 328.023 320.6 328.314C320.135 328.611 319.627 328.759 319.075 328.759L319.075 327.439C319.677 327.439 320.148 327.248 320.49 326.865C320.837 326.482 321.01 325.942 321.01 325.245C321.01 324.598 320.866 324.092 320.579 323.728C320.297 323.368 319.902 323.187 319.396 323.187C318.991 323.187 318.647 323.358 318.364 323.7C318.086 324.047 317.831 324.632 317.599 325.457C317.366 326.286 317.109 326.934 316.826 327.398C316.548 327.868 316.222 328.214 315.849 328.437C315.475 328.665 315.035 328.779 314.529 328.779C313.723 328.779 313.076 328.465 312.588 327.836C312.105 327.207 311.863 326.366 311.863 325.313C311.863 324.63 311.993 323.992 312.253 323.399C312.517 322.807 312.877 322.349 313.333 322.025C313.789 321.706 314.306 321.547 314.885 321.547L314.885 322.866C314.283 322.866 313.807 323.087 313.456 323.529C313.11 323.976 312.937 324.571 312.937 325.313C312.937 326.006 313.078 326.537 313.36 326.906C313.643 327.275 314.028 327.46 314.516 327.46C315.003 327.46 315.379 327.289 315.644 326.947C315.912 326.605 316.177 325.986 316.437 325.088ZM320.873 337.345L320.873 334.146L312 334.146L312 332.84L320.873 332.84L320.873 329.647L321.953 329.647L321.953 337.345L320.873 337.345ZM316.655 346.286C315.68 346.286 314.828 346.122 314.099 345.794C313.374 345.466 312.82 345.001 312.437 344.399C312.055 343.798 311.863 343.096 311.863 342.294C311.863 341.51 312.055 340.815 312.437 340.209C312.825 339.603 313.374 339.131 314.085 338.794C314.8 338.461 315.628 338.29 316.566 338.281L317.284 338.281C318.241 338.281 319.087 338.448 319.82 338.78C320.554 339.113 321.115 339.582 321.502 340.188C321.894 340.799 322.09 341.496 322.09 342.28C322.09 343.078 321.896 343.78 321.509 344.386C321.126 344.996 320.568 345.466 319.834 345.794C319.105 346.122 318.255 346.286 317.284 346.286L316.655 346.286ZM317.298 344.98C318.478 344.98 319.383 344.743 320.012 344.27C320.645 343.796 320.962 343.132 320.962 342.28C320.962 341.451 320.645 340.797 320.012 340.318C319.383 339.844 318.508 339.601 317.387 339.587L316.655 339.587C315.511 339.587 314.611 339.826 313.955 340.305C313.303 340.788 312.978 341.451 312.978 342.294C312.978 343.142 313.285 343.798 313.9 344.263C314.52 344.728 315.407 344.967 316.56 344.98L317.298 344.98ZM315.896 349.567L312 349.567L312 348.255L321.953 348.255L321.953 351.926C321.953 353.015 321.675 353.867 321.119 354.482C320.563 355.102 319.827 355.412 318.911 355.412C317.945 355.412 317.2 355.109 316.676 354.503C316.156 353.901 315.896 353.038 315.896 351.912L315.896 349.567ZM316.97 349.567L316.97 351.926C316.97 352.628 317.134 353.165 317.462 353.539C317.795 353.913 318.273 354.1 318.897 354.1C319.49 354.1 319.964 353.913 320.319 353.539C320.675 353.165 320.859 352.653 320.873 352.001L320.873 349.567L316.97 349.567Z" fill="white"/>
<rect x="303.707" y="143.775" width="34.0374" height="34.0374" transform="rotate(-45 303.707 143.775)" stroke="black"/>
</g>
<defs>
<filter id="filter0_d" x="5" y="4.00415" width="508" height="508" filterUnits="userSpaceOnUse" color-interpolation-filters="sRGB">
<feFlood flood-opacity="0" result="BackgroundImageFix"/>
<feColorMatrix in="SourceAlpha" type="matrix" values="0 0 0 0 0 0 0 0 0 0 0 0 0 0 0 0 0 0 127 0"/>
<feOffset dy="4"/>
<feGaussianBlur stdDeviation="2"/>
<feColorMatrix type="matrix" values="0 0 0 0 0 0 0 0 0 0 0 0 0 0 0 0 0 0 0.25 0"/>
<feBlend mode="normal" in2="BackgroundImageFix" result="effect1_dropShadow"/>
<feBlend mode="normal" in="SourceGraphic" in2="effect1_dropShadow" result="shape"/>
</filter>
<linearGradient id="paint0_linear" x1="321.241" y1="143.554" x2="321.241" y2="174.035" gradientUnits="userSpaceOnUse">
<stop stop-color="white"/>
<stop offset="1" stop-color="white" stop-opacity="0"/>
</linearGradient>
<clipPath id="clip0">
<rect width="509" height="509" fill="white"/>
</clipPath>
</defs>
</svg>
